<?xml version="1.0" standalone="no"?>
<!DOCTYPE svg PUBLIC "-//W3C//DTD SVG 20010904//EN"
 "http://www.w3.org/TR/2001/REC-SVG-20010904/DTD/svg10.dtd">
<svg version="1.0" xmlns="http://www.w3.org/2000/svg"
 width="112.000000pt" height="112.000000pt" viewBox="0 0 112.000000 112.000000"
 preserveAspectRatio="xMidYMid meet">
<metadata>
Created by potrace 1.11, written by Peter Selinger 2001-2013
</metadata>
<g transform="translate(0.000000,112.000000) scale(0.100000,-0.100000)"
fill="#000000" stroke="none">
<path d="M142 913 c-43 -21 -102 -82 -95 -99 8 -21 19 -17 50 16 15 16 41 36
57 44 77 39 150 -67 161 -234 3 -39 7 -76 10 -81 4 -5 3 -9 -2 -9 -4 0 -8 -47
-8 -105 l-1 -105 27 0 c19 0 30 6 34 20 3 11 11 20 16 20 5 0 8 3 7 8 -2 8
143 295 147 290 9 -10 25 -159 28 -258 2 -72 3 -75 27 -78 22 -3 30 6 65 70
71 131 124 232 152 288 16 30 31 56 36 58 4 2 7 10 7 18 0 8 11 19 23 25 13 6
24 17 24 25 0 11 -18 14 -79 14 -45 0 -78 -4 -78 -10 0 -5 0 -13 0 -17 0 -5 5
-9 10 -9 6 -1 15 -2 21 -3 7 -1 9 -12 5 -31 -7 -37 -117 -260 -128 -260 -4 0
-9 17 -9 38 -1 20 -3 46 -4 57 -28 213 -31 225 -54 225 -26 0 -34 -11 -111
-167 -38 -76 -70 -133 -70 -128 -1 6 -3 37 -5 70 -1 33 -6 79 -10 103 -4 24
-8 50 -9 57 -1 8 -5 18 -9 21 -4 4 -7 13 -7 21 0 26 -52 92 -85 107 -42 20
-101 20 -143 -1z"/>
<path d="M930 731 c0 -6 -3 -10 -7 -10 -19 3 -31 -3 -65 -33 -30 -28 -69 -86
-68 -103 0 -3 0 -6 -1 -7 -2 -7 -8 -36 -13 -66 -21 -111 -38 -177 -46 -180 -6
-2 -8 -7 -5 -12 8 -13 -21 -31 -54 -34 -29 -2 -71 -37 -71 -60 0 -17 402 -15
407 2 3 6 9 12 14 12 14 0 49 33 49 47 0 16 -4 16 -65 -2 -31 -10 -81 -15
-130 -13 -116 3 -117 4 -79 42 29 29 47 73 61 146 12 69 33 158 41 180 25 66
97 79 109 20 4 -23 11 -30 28 -30 19 0 24 7 29 42 4 24 3 45 -3 51 -15 15
-131 22 -131 8z"/>
</g>
</svg>
